<svg xmlns="http://www.w3.org/2000/svg" viewBox="0 0 350.46 122.7"><defs><style>.cls-1{fill:#e34f3d;}.cls-2{fill:#88c9d1;}.cls-3{fill:#45b6c4;}</style></defs><title>Asset 6</title><g id="Layer_2" data-name="Layer 2"><g id="Layer_1-2" data-name="Layer 1"><circle class="cls-1" cx="5.6" cy="10.33" r="5.6"/><circle class="cls-1" cx="25.83" cy="4.74" r="4.02"/><circle class="cls-1" cx="4.02" cy="32" r="4.02"/><path class="cls-2" d="M21.53,24,47.79,68.31a2.81,2.81,0,0,1-1,3.73,2.45,2.45,0,0,1-1.44.43,2.59,2.59,0,0,1-2.3-1.29L19.23,30.42A118.46,118.46,0,0,0,20.67,54.1C25,77.64,35.88,96.44,53.1,111.22V60.13l-23-38.75Q25.19,22.9,21.53,24Z"/><path class="cls-3" d="M92.57,71a2.77,2.77,0,0,1-4.74-2.87l26.26-44.35c-.57-.14-1-.28-1.58-.43-2-.43-4.44-1.15-7.17-1.86L82.66,60.13v51.38c17.8-15.36,28.85-34.73,32.72-58.7.58-3.44.87-6.74,1.3-10.19V30.14Z"/><path class="cls-3" d="M68,9.9h0l-.15,111.8H68a2.37,2.37,0,0,0,1.57-.57c2-1.3,4-2.59,5.89-4,.57-.43,1.15-.86,1.86-1.44v-57L100.17,20C86.68,15.79,69.89,9.9,68,9.9Z"/><path class="cls-2" d="M35.45,19.66l23,38.89v57c2.58,1.86,5.17,3.73,7.89,5.45a10.8,10.8,0,0,0,1.44.58V9.9C65.16,10.05,48.94,15.5,35.45,19.66Z"/><path class="cls-1" d="M140.79,56.4a1.89,1.89,0,0,1-.43-1,1.1,1.1,0,0,1,.14-.72l16.22-43.77c.71-1.87,1.86-3,3.44-3.16.57,0,1.29-.14,2-.14h.57a5.34,5.34,0,0,1,3,.57,6.06,6.06,0,0,1,2.15,2.73l17.51,43.91a6.58,6.58,0,0,1,.14.72,1.5,1.5,0,0,1-.43,1,1.4,1.4,0,0,1-1.29.58h-4.45a1.88,1.88,0,0,1-2-1.44l-4-10.47H152.27l-3.73,10.47a2,2,0,0,1-2,1.44h-4.16A4.07,4.07,0,0,1,140.79,56.4Zm29.7-18.23-7.6-21c0-.14-.15-.29-.43-.29s-.29.15-.43.29l-7.47,21Z"/><path class="cls-1" d="M199.91,48.08c0,1.58.58,2.29,1.58,2.29a7.29,7.29,0,0,0,1.29-.28,5.89,5.89,0,0,1,1.87-.58c.43,0,.86.29,1.15,1l1,2.29a1.77,1.77,0,0,1,.15.86,3.08,3.08,0,0,1-1.3,1.87,9.91,9.91,0,0,1-6.45,2c-4.88,0-7.18-3.16-7.18-9.62V2a1.86,1.86,0,0,1,.57-1.44,1.41,1.41,0,0,1,1.3-.57h4.3a1.75,1.75,0,0,1,1.29.57A2.43,2.43,0,0,1,199.91,2Z"/><path class="cls-1" d="M218.43,40.61v.58a9.27,9.27,0,0,0,2.87,7,11.07,11.07,0,0,0,7.89,2.87,14.19,14.19,0,0,0,8.47-2.73,3.31,3.31,0,0,1,1.29-.57,2.08,2.08,0,0,1,1.87,1.15l.86,1.86a4.33,4.33,0,0,1,.28,1.44,3,3,0,0,1-.71,1.58,5.78,5.78,0,0,1-1.73,1.43,12.48,12.48,0,0,1-2.44,1.15c-.86.29-1.86.57-2.87.86a29,29,0,0,1-6.17.58,17.16,17.16,0,0,1-6.46-1.3A16.24,16.24,0,0,1,216,53c-3.45-3.3-5.17-7.9-5.17-13.49,0-9.91,3.45-16.08,10.48-18.52A21.68,21.68,0,0,1,228,19.8a22.76,22.76,0,0,1,5.89.72,12.54,12.54,0,0,1,4.16,2.16,10.44,10.44,0,0,1,3.73,8.46,9,9,0,0,1-4.45,8.18c-2.58,1.72-5.88,2.44-10,2.44A29.71,29.71,0,0,1,218.43,40.61Zm15.78-9.47c0-3-2-4.59-6.17-4.59-3.87,0-6.74,1.44-8.18,4.31a12.81,12.81,0,0,0-1.15,3.73,16.59,16.59,0,0,0,7,1.43C231.49,36,234.21,34.3,234.21,31.14Z"/><path class="cls-1" d="M250.14,23c0-1.58.72-2.29,2-2.29h1.73a2.87,2.87,0,0,1,2.58,1.57A19.2,19.2,0,0,1,258,28.42h0a4.07,4.07,0,0,0,.14-1.15,10.55,10.55,0,0,1,1-2.73,13,13,0,0,1,1.86-2.73,8.08,8.08,0,0,1,5.6-2.15q3.66,0,5.16,1.29a2,2,0,0,1,.58,1.58l-.58,4a1.53,1.53,0,0,1-1.72,1.58,10,10,0,0,1-1.72-.29,18.31,18.31,0,0,0-3.16-.57,3.87,3.87,0,0,0-2.44,1,9.32,9.32,0,0,0-2.15,2.59,12.6,12.6,0,0,0-1.87,6.74V54.68a2.17,2.17,0,0,1-.57,1.58,1.66,1.66,0,0,1-1.43.57H253a2,2,0,0,1-1.57-.57,2.59,2.59,0,0,1-.58-1.58V32.58a39.92,39.92,0,0,0-.43-7.47C250.29,24,250.14,23.25,250.14,23Z"/><path class="cls-1" d="M314.15,38.61a20,20,0,0,1,1.44-7.75,18.79,18.79,0,0,1,3.87-6,17.52,17.52,0,0,1,12.92-5.17c5.88,0,10.33,1.72,13.49,5.17s4.59,7.89,4.59,13.78c0,5.59-1.72,10.18-5.31,13.77a17.62,17.62,0,0,1-12.92,5.31c-5.45,0-9.9-1.72-13.2-5.31A19.89,19.89,0,0,1,314.15,38.61Zm10.33-8.19a10.17,10.17,0,0,0-1.72,4,16.86,16.86,0,0,0-.57,4.6,15.11,15.11,0,0,0,.57,4.44,12.14,12.14,0,0,0,1.87,3.88,9.26,9.26,0,0,0,7.75,3.73c3.3,0,5.88-1.15,7.6-3.59,1.58-2.15,2.3-5,2.3-8.61,0-5.45-1.72-9.18-5.31-11.19a10.32,10.32,0,0,0-9.47,0A9.29,9.29,0,0,0,324.48,30.42Z"/><path class="cls-1" d="M196.33,77.64a4.27,4.27,0,0,1-3.45-1.43,4.49,4.49,0,0,1-1.43-3.45,4.26,4.26,0,0,1,1.43-3.44,5,5,0,0,1,3.45-1.44,5.08,5.08,0,0,1,4.88,4.88,4.26,4.26,0,0,1-1.44,3.45A4.66,4.66,0,0,1,196.33,77.64Z"/><path class="cls-1" d="M305.11,54.68a17.45,17.45,0,0,0-4.74-2,25.28,25.28,0,0,0-6-.57,14.24,14.24,0,0,0-6.46,1.43c.43-.43,1-1,1.86-1.72s3.73-2.58,8.47-5.6c.86-.57,1.72-1.15,2.44-1.72a10.8,10.8,0,0,0,2.3-2.15c8.32-7.47,7.17-18.8,6-24.11q-.42-4.31-2.58-4.31h-2.73a3.2,3.2,0,0,0-1.14.29,1.11,1.11,0,0,0-.58.57,2.15,2.15,0,0,0-.28,1,33.94,33.94,0,0,0,.71,3.73,23.07,23.07,0,0,1,.72,6.17,7.32,7.32,0,0,0-1.87-2.44c-2.44-2.3-5.74-3.45-10-3.45A15.61,15.61,0,0,0,281,23.25a12.3,12.3,0,0,0-4.74,10,11.73,11.73,0,0,0,4.17,9,15.1,15.1,0,0,0,8.89,3.73,39.51,39.51,0,0,0-6.17,4.3c-4.73,4.17-7.17,8.47-7.17,13.06a9.85,9.85,0,0,0,4.88,8.76,20.36,20.36,0,0,0,11.48,3,21.05,21.05,0,0,0,11.48-3c3.59-2.3,5.45-5.31,5.45-9.19C309.85,59.41,308.27,56.69,305.11,54.68ZM288.89,40a7.69,7.69,0,0,1-2.58-1.43,7,7,0,0,1-1.72-2.3,6.67,6.67,0,0,1-.58-3,6.11,6.11,0,0,1,.58-2.88c1.29-2.58,3.73-3.87,7.17-3.87a9.4,9.4,0,0,1,5.46,1.58,6.13,6.13,0,0,1,2.58,5.17,6.27,6.27,0,0,1-2.3,5.16,8.27,8.27,0,0,1-2.44,1.44,10.43,10.43,0,0,1-3,.43A11.71,11.71,0,0,1,288.89,40Zm12.49,25.55c-1.58,2-4.45,3-8.47,3a11.69,11.69,0,0,1-6.31-1.44,9.19,9.19,0,0,1-2.16-1.86,4.58,4.58,0,0,1-.86-2.87,4.65,4.65,0,0,1,1.15-3c1.44-1,4-1.57,7.89-1.57a14.9,14.9,0,0,1,6.17,1,7.15,7.15,0,0,1,2.3,1.58,4.1,4.1,0,0,1,1,2.58A3,3,0,0,1,301.38,65.59Z"/><path class="cls-3" d="M141.22,66.3a2.52,2.52,0,0,1,.57-1.72,2,2,0,0,1,1.44-.72H148a2,2,0,0,1,1.44.72A2.29,2.29,0,0,1,150,66.3v54a2.53,2.53,0,0,1-.57,1.73,2,2,0,0,1-1.44.71h-4.73a2,2,0,0,1-1.44-.71,2.3,2.3,0,0,1-.57-1.73Zm39.46,47.22,1.44-.14a1.79,1.79,0,0,1,2,1.43c.14.57.28,1.15.43,1.58a7.37,7.37,0,0,1,.29,1.72,2.16,2.16,0,0,1-.58,1.58,5.74,5.74,0,0,1-1.43,1.15c-4,2.15-8.33,1.29-12.92-2.73C166,115,161.45,109.64,157,102.33l-5.31-9a26.81,26.81,0,0,1,2.16-3.87,147.7,147.7,0,0,1,8.61-12.63c4.16-5.6,7.6-9.47,10.33-11.77a4.56,4.56,0,0,1,2.73-1.43,5,5,0,0,1,3.15,1.14l1.3,1c1.72,1.29,2.15,2.58,1.29,3.73a10,10,0,0,1-1.72,1.72,22.84,22.84,0,0,0-1.87,1.72c-2.3,2.3-4,4.17-5.31,5.6-3,3.45-5,6-6.32,7.46l-3,3.88a22,22,0,0,0-2,3L164.47,98l2.44,3.44q7.74,10.77,12.05,11.63A4.9,4.9,0,0,0,180.68,113.52Z"/><path class="cls-3" d="M200.2,112.08c0,1.58.58,2.44,1.58,2.44a3.46,3.46,0,0,0,1.15-.28,4.34,4.34,0,0,1,1.86-.58c.43,0,.86.29,1.15,1l1,2.29a3.46,3.46,0,0,1,.28,1.15c0,1-.86,1.87-2.44,2.73a9.6,9.6,0,0,1-4.73,1.15,9.25,9.25,0,0,1-3.73-.58,5.39,5.39,0,0,1-2.44-1.72c-1.3-1.58-2-4.31-2-7.89V85.39a2.17,2.17,0,0,1,.57-1.58,1.56,1.56,0,0,1,1.29-.57h4.6a1.4,1.4,0,0,1,1.29.57,3.08,3.08,0,0,1,.57,1.58Z"/><path class="cls-3" d="M240.53,88.12V66a1.67,1.67,0,0,1,.57-1.44,1.4,1.4,0,0,1,1.29-.57h4.74a1.4,1.4,0,0,1,1.29.57A2.53,2.53,0,0,1,249,66v41a49.83,49.83,0,0,0,1.14,11.34c0,.29.15.72.15,1.15a1.76,1.76,0,0,1-.58,1.29,2.15,2.15,0,0,1-1.58.57h-1.72a2.9,2.9,0,0,1-2.72-1.58,28.58,28.58,0,0,1-1.44-5.45,12.9,12.9,0,0,1-8.75,7.32,16.78,16.78,0,0,1-5,.57,13.36,13.36,0,0,1-6-1.58,14.09,14.09,0,0,1-5-4.16,21.91,21.91,0,0,1-4.3-13.77,23.76,23.76,0,0,1,4.16-14.21,14.44,14.44,0,0,1,12.05-6.17A12.57,12.57,0,0,1,240.53,88.12ZM221.44,102.9a14.86,14.86,0,0,0,.58,4.45,15.85,15.85,0,0,0,1.72,3.87,8,8,0,0,0,7,3.88,9,9,0,0,0,7.18-3.59,13,13,0,0,0,3.3-8.75c0-4.17-1-7.47-3.16-9.91a9.43,9.43,0,0,0-7.61-3.58c-3.15,0-5.45,1.43-7.17,4.44A23.28,23.28,0,0,0,221.44,102.9Z"/><path class="cls-3" d="M271.24,115.38q6.47,0,6.46-4.3c0-1.58-1.29-3-3.73-4q-1.52-.65-3.45-1.29a26.1,26.1,0,0,1-3.59-1.44,22.3,22.3,0,0,1-3.15-1.86,13.5,13.5,0,0,1-2.59-2.3,11.06,11.06,0,0,1-2.29-6.89,9.42,9.42,0,0,1,4.16-8,15.76,15.76,0,0,1,9.18-2.73,19.45,19.45,0,0,1,9.91,2.3c.86.57,1.29,1.14,1.29,1.86a7.58,7.58,0,0,1-.86,3.3c-.58,1.15-1.15,1.73-1.87,1.73a3.9,3.9,0,0,1-1.86-.44,15,15,0,0,0-1.58-.71c-.43-.15-1-.43-1.44-.58a13.75,13.75,0,0,0-3.15-.57,10.46,10.46,0,0,0-2.3.14,5.28,5.28,0,0,0-1.58.58,3.05,3.05,0,0,0-1.72,2.58,3.69,3.69,0,0,0,.72,2.3,6.42,6.42,0,0,0,1.86,1.43,27.67,27.67,0,0,0,2.87,1.29l3.59,1.58a20.72,20.72,0,0,1,6,3.45,9.84,9.84,0,0,1,3,7.17,11.15,11.15,0,0,1-3.44,8.47c-2.59,2.44-6.32,3.59-11.05,3.59-4.88,0-8.47-.86-10.91-2.87-1.15-.86-1.87-1.73-1.87-2.44a4.67,4.67,0,0,1,.43-2c.29-.58.58-1.29,1-2a2,2,0,0,1,1.72-1.15,3.58,3.58,0,0,1,2.3,1,17.05,17.05,0,0,0,3.3,1.73A13.58,13.58,0,0,0,271.24,115.38Z"/></g></g></svg>