<svg xmlns="http://www.w3.org/2000/svg" viewBox="0 0 44.64 44.64"><defs><style>.cls-1{fill:#fff;}</style></defs><title>Asset 20</title><g id="Layer_2" data-name="Layer 2"><g id="Layer_1-2" data-name="Layer 1"><path class="cls-1" d="M17.57,16.15a2.37,2.37,0,0,0-1.79-.78,2.42,2.42,0,0,0-2.41,2.41,2.31,2.31,0,0,0,.57,1.54l.22.24.16.16a.57.57,0,0,0,.11.14l4.41,4.68.22.11.24-.11,4.69-5,.13-.13.05-.06.06-.05s0-.06.05-.08l0,0a2.45,2.45,0,0,0,.49-1.44,2.42,2.42,0,0,0-2.41-2.4,2.34,2.34,0,0,0-1.79.78,1.58,1.58,0,0,1-.43.35,0,0,0,0,0,0,0l-.35.16a.6.6,0,0,1-.22.06,1.62,1.62,0,0,1-.49.08.93.93,0,0,1-.4-.06.64.64,0,0,1-.3-.08.77.77,0,0,1-.27-.11,1.22,1.22,0,0,1-.35-.24A1.7,1.7,0,0,1,17.57,16.15Zm1.49,12.56a4.38,4.38,0,0,1-3.17-1.38l-4.68-5L10.88,22l-.08-.11a6.47,6.47,0,0,1,8.26-9.69h0a6.59,6.59,0,0,1,3.31-.89,6.45,6.45,0,0,1,5,10.58l-.08.11-.33.35h0a1,1,0,0,1-.29.29l-4.39,4.69A4.39,4.39,0,0,1,19.06,28.71Z"/><path class="cls-1" d="M40.61,39.18a1.54,1.54,0,0,0-.44-1l-6.66-6.65a14.85,14.85,0,0,1-2,2l6.66,6.66a1.38,1.38,0,0,0,1,.4,1.36,1.36,0,0,0,1-.4A1.5,1.5,0,0,0,40.61,39.18ZM8.45,29.71a15.05,15.05,0,0,0,10.63,4.38,14.63,14.63,0,0,0,8.23-2.49.27.27,0,0,0,.17-.08,13.05,13.05,0,0,0,2.24-1.81,14.71,14.71,0,0,0,1.82-2.22.58.58,0,0,1,.08-.14A15,15,0,1,0,8.45,29.71ZM0,19.07a19.09,19.09,0,1,1,35.87,9.07v0L43,35.31a5.3,5.3,0,0,1,1.6,3.87A5.23,5.23,0,0,1,43,43.05a5.46,5.46,0,0,1-7.71,0l-7.18-7.17A19.1,19.1,0,0,1,0,19.07Z"/></g></g></svg>