<svg xmlns="http://www.w3.org/2000/svg" viewBox="0 0 1920 1080"><defs><style>.cls-2{fill:#d6ebed}.cls-3{fill:#ed634e}.cls-4{fill:#4ebfc8}.cls-5{fill:#3cbcc5}.cls-6{fill:#f0826d}.cls-7{fill:#ec5b47}.cls-8{fill:#fff}.cls-9{fill:none}</style></defs><g id="Layer_2" data-name="Layer 2"><g id="Layer_1-2" data-name="Layer 1"><path fill="#b6dde2" d="M0 0h1920v1080H0z"/><path class="cls-2" d="M154.33 283.28a3 3 0 0 0 0-4.19L26 150.78a3 3 0 0 0-4.2 0 3 3 0 0 0 0 4.2l128.31 128.3a3 3 0 0 0 4.22 0zM238.28 367.23a3 3 0 0 0 0-4.19l-30.7-30.7a3 3 0 0 0-4.19 0 3 3 0 0 0 0 4.19l30.7 30.7a3 3 0 0 0 4.19 0z"/><path class="cls-3" d="M273.29 349.15a6.24 6.24 0 0 0 0-8.8l-25.2-25.21a6.24 6.24 0 0 0-8.8 0 6.23 6.23 0 0 0 0 8.81l25.2 25.2a6.24 6.24 0 0 0 8.8 0z"/><path class="cls-4" d="M86.93 352.18a3 3 0 0 0 0-4.19L5.06 266.12a3 3 0 0 0-4.2 0 3 3 0 0 0 0 4.19l81.87 81.87a3 3 0 0 0 4.2 0zM199.72 466.27a3 3 0 0 0 0-4.19l-41.5-41.5a3 3 0 0 0-4.19 0 3 3 0 0 0 0 4.2l41.49 41.49a3 3 0 0 0 4.2 0zM203.45 253.73a3 3 0 0 0 0-4.2l-81.87-81.86a3 3 0 0 0-4.19 0 3 3 0 0 0 0 4.19l81.87 81.87a3 3 0 0 0 4.19 0zM267.62 314.82a3 3 0 0 0 0-4.2l-18.47-18.47a3 3 0 0 0-4.19 0 3 3 0 0 0 0 4.2l18.47 18.47a3 3 0 0 0 4.19 0z"/><path class="cls-3" d="M228 302.59a6.85 6.85 0 0 0 0-9.65l-60.6-60.59a6.85 6.85 0 0 0-9.65 0 6.85 6.85 0 0 0 0 9.65l60.59 60.59a6.85 6.85 0 0 0 9.66 0z"/><path class="cls-5" d="M134 265.35a7.09 7.09 0 0 0 0-10l-37.48-37.48a7.09 7.09 0 0 0-10 0 7.09 7.09 0 0 0 0 10L124 265.35a7.09 7.09 0 0 0 10 0z"/><path class="cls-6" d="M79.35 305.3a11.46 11.46 0 0 0 0-16.15l-35.42-35.43a11.46 11.46 0 0 0-16.15 0 11.44 11.44 0 0 0 0 16.15L63.2 305.3a11.46 11.46 0 0 0 16.15 0z"/><path class="cls-7" d="M164.63 366.09a11.47 11.47 0 0 0 0-16.16l-25.36-25.36a11.46 11.46 0 0 0-16.15 0 11.47 11.47 0 0 0 0 16.16l25.36 25.36a11.46 11.46 0 0 0 16.15 0zM54.93 352.9a11.46 11.46 0 0 0 0-16.15l-25.36-25.36a11.46 11.46 0 0 0-16.15 0 11.44 11.44 0 0 0 0 16.15l25.36 25.36a11.46 11.46 0 0 0 16.15 0z"/><path class="cls-8" d="M154.91 392.41a6.85 6.85 0 0 0 0-9.65l-60.59-60.59a6.85 6.85 0 0 0-9.65 0 6.85 6.85 0 0 0 0 9.65l60.59 60.59a6.85 6.85 0 0 0 9.65 0z"/><path class="cls-5" d="M115 302.76a6.25 6.25 0 0 0 0-8.81l-81.27-81.22a6.24 6.24 0 0 0-8.8 0 6.25 6.25 0 0 0 0 8.81l81.22 81.22a6.25 6.25 0 0 0 8.85 0z"/><path class="cls-8" d="M38.05 264a4.39 4.39 0 0 0 0-6.2l-18.28-18.31a4.41 4.41 0 0 0-6.2 0 4.39 4.39 0 0 0 0 6.2L31.85 264a4.41 4.41 0 0 0 6.2 0zM214.77 303.53a4.41 4.41 0 0 0 0-6.2l-18.29-18.28a4.39 4.39 0 0 0-6.2 0 4.39 4.39 0 0 0 0 6.2l18.28 18.28a4.4 4.4 0 0 0 6.21 0z"/><path class="cls-5" d="M137.56 235.49a2.55 2.55 0 0 1 3.6 0l10.61 10.61a2.55 2.55 0 0 1-3.6 3.6l-10.61-10.61a2.55 2.55 0 0 1 0-3.6z"/><path class="cls-6" d="M111 318.57a2.55 2.55 0 0 1 3.6 0l10.62 10.62a2.55 2.55 0 0 1-3.6 3.6L111 322.17a2.55 2.55 0 0 1 0-3.6z"/><path class="cls-8" d="M127.82 296.54a1.34 1.34 0 0 0 0-1.89l-95.28-95.29a1.34 1.34 0 0 0-1.89 0 1.34 1.34 0 0 0 0 1.89l95.29 95.29a1.33 1.33 0 0 0 1.88 0zM119.4 211.05a1.33 1.33 0 0 0 0-1.88L48.2 138a1.34 1.34 0 0 0-1.89 0 1.34 1.34 0 0 0 0 1.89l71.21 71.2a1.33 1.33 0 0 0 1.88-.04zM103.5 364.27a1.34 1.34 0 0 0 0-1.89L8.22 267.09a1.36 1.36 0 0 0-1.89 0 1.34 1.34 0 0 0 0 1.89l95.29 95.29a1.33 1.33 0 0 0 1.88 0zM187 358.12a1.33 1.33 0 0 0 0-1.88l-23.7-23.7a1.34 1.34 0 0 0-1.89 0 1.35 1.35 0 0 0 0 1.88l23.71 23.7a1.33 1.33 0 0 0 1.88 0zM256.89 299.12a1.33 1.33 0 0 0 0-1.88l-23.7-23.71a1.34 1.34 0 0 0-1.89 0 1.34 1.34 0 0 0 0 1.89l23.7 23.7a1.34 1.34 0 0 0 1.89 0z"/><path class="cls-3" d="M92 309.72a1.34 1.34 0 0 0 0-1.89l-23.7-23.7a1.34 1.34 0 0 0-1.89 0 1.34 1.34 0 0 0 0 1.89l23.7 23.7a1.34 1.34 0 0 0 1.89 0zM115 179a1.33 1.33 0 0 0 0-1.88l-23.7-23.71a1.35 1.35 0 0 0-1.88 0 1.34 1.34 0 0 0 0 1.89L113.1 179a1.33 1.33 0 0 0 1.9 0z"/><path class="cls-8" d="M170.64 245.86a1.34 1.34 0 0 0 0-1.89l-23.7-23.7a1.34 1.34 0 0 0-1.89 0 1.35 1.35 0 0 0 0 1.88l23.71 23.71a1.35 1.35 0 0 0 1.88 0z"/><path class="cls-6" d="M217.85 318.79a2.47 2.47 0 0 1 3.49 0l10.29 10.29a2.47 2.47 0 0 1-3.49 3.49l-10.29-10.29a2.47 2.47 0 0 1 0-3.49z"/><path class="cls-3" d="M145.63 272.62a2.47 2.47 0 0 1 3.49 0l10.28 10.29a2.47 2.47 0 0 1-3.49 3.49l-10.28-10.29a2.47 2.47 0 0 1 0-3.49z"/><path class="cls-6" d="M65.81 349.88a4.41 4.41 0 0 0 0-6.2L47.52 325.4a4.39 4.39 0 0 0-6.2 0 4.41 4.41 0 0 0 0 6.2l18.28 18.28a4.4 4.4 0 0 0 6.21 0z"/><path class="cls-4" d="M54.41 160.63a2.94 2.94 0 0 1 4.13 0l2.93 2.93a2.92 2.92 0 0 1-4.13 4.13l-2.93-2.93a2.94 2.94 0 0 1 0-4.13z"/><path class="cls-6" d="M199 226.83a2.94 2.94 0 0 1 4.13 0l2.93 2.93a2.92 2.92 0 1 1-4.13 4.13L199 231a2.94 2.94 0 0 1 0-4.17zM128 221.09a11.46 11.46 0 0 0 0-16.15l-35.45-35.42a11.46 11.46 0 0 0-16.15 0 11.46 11.46 0 0 0 0 16.15l35.43 35.42a11.44 11.44 0 0 0 16.17 0z"/><path class="cls-3" d="M126.18 229.83a1.34 1.34 0 0 0 0-1.89l-40.26-40.26a1.33 1.33 0 0 0-1.88 0 1.34 1.34 0 0 0 0 1.89l40.26 40.26a1.33 1.33 0 0 0 1.88 0z"/><path class="cls-6" d="M146.74 314.3a2.91 2.91 0 0 1 4.12 0l2.93 2.93a2.92 2.92 0 0 1-4.13 4.13l-2.92-2.93a2.92 2.92 0 0 1 0-4.13z"/><path class="cls-5" d="M79.15 318.68a2.92 2.92 0 0 1 4.13 0l2.93 2.93a2.92 2.92 0 0 1-4.13 4.13l-2.93-2.93a2.94 2.94 0 0 1 0-4.13z"/><path class="cls-9" d="M129 418.91a3.59 3.59 0 0 0 5 0l17-17a3.52 3.52 0 0 0 0-5l-1.58-1.58-22 22zM109.12 376.92a15.61 15.61 0 0 0-3.45 16.94l20.38-20.38a15.71 15.71 0 0 0-16.93 3.44z"/><path class="cls-7" transform="rotate(-45 101.145 369.314)" d="M89.12 365.1h24.06v8.42H89.12z"/><path class="cls-8" d="M109.08 398.92l14.21 14.21 22-22-14.21-14.21-.08-.07-22 22z"/><path class="cls-5" d="M118.34 366.55l.64-.64a3 3 0 0 0 0-4.17l-10.12-10.12a2.94 2.94 0 0 0-4.16 0L83.53 372.8a2.94 2.94 0 0 0 0 4.16l10.12 10.12a2.94 2.94 0 0 0 4.16 0l.93-.93a21.47 21.47 0 0 0 6.25 17l20 19.95a9.49 9.49 0 0 0 13.35 0l17-17a9.49 9.49 0 0 0 0-13.35l-20-19.95a21.47 21.47 0 0 0-17-6.25zm-28.64 8.26l17-17 6 5.95-17 17zm19.45 2.08a15.74 15.74 0 0 1 16.94-3.45l-20.38 20.39a15.62 15.62 0 0 1 3.44-16.94zm41.92 19.95a3.53 3.53 0 0 1 0 5l-17 17a3.61 3.61 0 0 1-5 0l-1.58-1.58 22-22zm-19.95-19.95l14.21 14.21-22 22-14.21-14.21-.07-.07 22-22z"/><path class="cls-7" d="M129.51 389.52l-2.09 2.09-2.42-2.45a2.3 2.3 0 0 0-3.25 3.25l2.45 2.45-2.46 2.46a2.31 2.31 0 0 0 0 3.25l.08.07a2.29 2.29 0 0 0 3.25 0l2.45-2.45 2.38 2.38a2.3 2.3 0 0 0 3.26-3.25l-2.38-2.38 2.09-2.09a2.32 2.32 0 0 0 0-3.26l-.08-.07a2.29 2.29 0 0 0-3.28 0z"/><path class="cls-8" d="M84.06 194.12c-9.06-13.46-20.52-11.43-20.52-11.43s2-11.42-11.43-20.52-41.83 1.83-28.23 60.11c58.35 13.63 69.27-14.71 60.18-28.16z"/><path class="cls-5" d="M89 209.5c2.33-8.44-.22-17.24-6.62-23.65a21.59 21.59 0 0 0-12.15-5.6 36.14 36.14 0 0 0-4-.22 26.56 26.56 0 0 0-.22-4.14 20.82 20.82 0 0 0-5.6-12 24.45 24.45 0 0 0-23.64-6.62A25.07 25.07 0 0 0 25.38 164a2.89 2.89 0 0 0 .07 4.14l.07.08a2.93 2.93 0 0 0 4.22-.15 18.24 18.24 0 0 1 26.48 0 15.16 15.16 0 0 1 3.86 8.66 18.81 18.81 0 0 1-.07 6 2.95 2.95 0 0 0 3.49 3.49 18.64 18.64 0 0 1 6-.07 15.88 15.88 0 0 1 8.7 3.85 18.51 18.51 0 0 1 5.09 17.9 18.85 18.85 0 0 1-5.09 8.58 22.64 22.64 0 0 1-10 5.46c-13 3.42-38.34-.66-41.83-1.82l-.08-.07-.07-.08-.07-.07-.08-.07c-.87-2.77-3.34-17.9-3.12-30.48a3 3 0 0 0-6-.15c-.29 13.24 2.26 28.74 3.35 32.3a5.58 5.58 0 0 0 1.6 2.62l.14.15a6.74 6.74 0 0 0 2.55 1.52c4.8 1.46 30.77 5.61 45 1.82a28.06 28.06 0 0 0 12.59-6.91A25.06 25.06 0 0 0 89 209.5z"/><path class="cls-7" d="M33 209.28a2.91 2.91 0 0 0 .65 3.27l.07.08a3 3 0 0 0 3.35.43l22.26-11.64-3.33 8.15a3 3 0 0 0 .65 3.28l4.22 4.22a3 3 0 0 0 4.22-4.22L62.26 210l5.68-13.82a3.19 3.19 0 0 0-.73-3.35 3 3 0 0 0-3.35-.44L41.67 204l3.86-9.39a2.91 2.91 0 0 0-.65-3.27l-22.38-22.4a3 3 0 0 0-4.22 4.21l21 21z"/><path class="cls-4" d="M263.54 266.81a3 3 0 0 0 0-4.19l-81.87-81.87a3 3 0 0 0-4.19 0 3 3 0 0 0 0 4.19l81.87 81.87a3 3 0 0 0 4.19 0zM327.71 327.9a3 3 0 0 0 0-4.19l-18.47-18.47a3 3 0 0 0-4.19 0 3 3 0 0 0 0 4.19l18.47 18.47a3 3 0 0 0 4.19 0z"/><path class="cls-8" d="M255.37 217.88a4.42 4.42 0 0 0 0-6.21l-18.29-18.28a4.39 4.39 0 0 0-6.2 0 4.41 4.41 0 0 0 0 6.2l18.28 18.29a4.42 4.42 0 0 0 6.21 0z"/><path class="cls-5" d="M316 184.09a2.55 2.55 0 0 1 3.6 0l10.62 10.62a2.55 2.55 0 0 1-3.6 3.6L316 187.7a2.57 2.57 0 0 1 0-3.61z"/><path class="cls-4" d="M365.44 306.73a1.33 1.33 0 0 0 0-1.88l-23.7-23.71a1.36 1.36 0 0 0-1.89 0 1.34 1.34 0 0 0 0 1.89l23.7 23.7a1.34 1.34 0 0 0 1.89 0z"/><path class="cls-3" d="M309.35 263.62a1.34 1.34 0 0 0 0-1.89L285.65 238a1.34 1.34 0 0 0-1.89 0 1.34 1.34 0 0 0 0 1.89l23.7 23.7a1.34 1.34 0 0 0 1.89.03z"/><path class="cls-6" d="M142.39 141.6a2.47 2.47 0 0 1 3.49 0l10.29 10.29a2.47 2.47 0 1 1-3.49 3.49l-10.29-10.29a2.47 2.47 0 0 1 0-3.49z"/><path class="cls-3" d="M302.85 221.23a2.47 2.47 0 0 1 3.49 0l10.29 10.29a2.47 2.47 0 0 1-3.49 3.49l-10.29-10.29a2.47 2.47 0 0 1 0-3.49z"/><path class="cls-4" d="M115.47 132.76a2.92 2.92 0 0 1 4.13 0l2.93 2.93a2.92 2.92 0 0 1-4.13 4.13l-2.93-2.93a2.92 2.92 0 0 1 0-4.13z"/><path class="cls-6" d="M259.08 239.92a2.92 2.92 0 0 1 4.13 0l2.93 2.93A2.92 2.92 0 0 1 262 247l-2.93-2.93a2.94 2.94 0 0 1 .01-4.15z"/><path class="cls-3" d="M292.45 204.43a1.36 1.36 0 0 0 0-1.89l-40.26-40.26a1.34 1.34 0 0 0-1.89 0 1.33 1.33 0 0 0 0 1.88l40.26 40.27a1.36 1.36 0 0 0 1.89 0z"/><path class="cls-6" d="M325.14 262.91a2.92 2.92 0 0 1 4.13 0l2.93 2.93a2.92 2.92 0 0 1-4.13 4.13l-2.93-2.97a2.94 2.94 0 0 1 0-4.09z"/><path class="cls-5" d="M296.47 272.58a2.92 2.92 0 0 1 4.13 0l2.93 2.93a2.92 2.92 0 0 1-4.13 4.13l-2.93-2.93a2.92 2.92 0 0 1 0-4.13z"/><path class="cls-4" d="M501.91 65.86a3 3 0 0 0 0 4.19l81.87 81.87a3 3 0 0 0 4.19 0 3 3 0 0 0 0-4.19L506.1 65.86a3 3 0 0 0-4.19 0zM437.74 4.77a3 3 0 0 0 0 4.2l18.47 18.47a3 3 0 0 0 4.19 0 3 3 0 0 0 0-4.2L441.93 4.77a3 3 0 0 0-4.19 0z"/><path class="cls-8" d="M510.08 114.8a4.39 4.39 0 0 0 0 6.2l18.28 18.29a4.41 4.41 0 0 0 6.2 0 4.4 4.4 0 0 0 0-6.21l-18.28-18.28a4.41 4.41 0 0 0-6.2 0z"/><path class="cls-5" d="M449.48 148.58a2.55 2.55 0 0 1-3.6 0L435.27 138a2.55 2.55 0 0 1 3.6-3.6l10.61 10.6a2.55 2.55 0 0 1 0 3.58z"/><path class="cls-4" d="M400 25.94a1.34 1.34 0 0 0 0 1.89l23.7 23.7a1.34 1.34 0 0 0 1.89 0 1.35 1.35 0 0 0 0-1.88l-23.7-23.71a1.33 1.33 0 0 0-1.89 0z"/><path class="cls-3" d="M456.1 69.06a1.33 1.33 0 0 0 0 1.88l23.7 23.71a1.34 1.34 0 0 0 1.89 0 1.34 1.34 0 0 0 0-1.89L458 69.06a1.34 1.34 0 0 0-1.9 0z"/><path class="cls-6" d="M623.05 191.07a2.47 2.47 0 0 1-3.49 0l-10.29-10.28a2.47 2.47 0 0 1 3.49-3.49l10.29 10.28a2.47 2.47 0 0 1 0 3.49z"/><path class="cls-3" d="M462.6 111.45a2.47 2.47 0 0 1-3.49 0l-10.29-10.29a2.47 2.47 0 1 1 3.49-3.49L462.6 108a2.47 2.47 0 0 1 0 3.45z"/><path class="cls-4" d="M650 199.92a2.94 2.94 0 0 1-4.13 0l-2.95-2.92a2.92 2.92 0 1 1 4.13-4.13l2.93 2.93a2.94 2.94 0 0 1 .02 4.12z"/><path class="cls-6" d="M506.36 92.76a2.94 2.94 0 0 1-4.13 0l-2.93-2.93a2.92 2.92 0 0 1 4.13-4.13l2.93 2.93a2.92 2.92 0 0 1 0 4.13z"/><path class="cls-3" d="M473 128.25a1.34 1.34 0 0 0 0 1.89l40.26 40.26a1.34 1.34 0 0 0 1.89 0 1.34 1.34 0 0 0 0-1.89l-40.26-40.26a1.34 1.34 0 0 0-1.89 0z"/><path class="cls-6" d="M440.3 69.77a2.94 2.94 0 0 1-4.13 0l-2.92-2.93a2.92 2.92 0 0 1 4.12-4.13l2.93 2.93a2.92 2.92 0 0 1 0 4.13z"/><path class="cls-5" d="M469 60.1a2.94 2.94 0 0 1-4.13 0l-2.93-2.93a2.92 2.92 0 0 1 4.11-4.17l2.95 3a2.94 2.94 0 0 1 0 4.1z"/><path class="cls-4" d="M271.54 111.81a3 3 0 0 0 0-4.19l-81.87-81.87a3 3 0 0 0-4.19 0 3 3 0 0 0 0 4.19l81.87 81.87a3 3 0 0 0 4.19 0zM335.71 172.9a3 3 0 0 0 0-4.19l-18.47-18.47a3 3 0 0 0-4.19 0 3 3 0 0 0 0 4.19l18.47 18.47a3 3 0 0 0 4.19 0z"/><path class="cls-8" d="M263.37 62.88a4.42 4.42 0 0 0 0-6.21l-18.29-18.28a4.39 4.39 0 0 0-6.2 0 4.41 4.41 0 0 0 0 6.2l18.28 18.29a4.42 4.42 0 0 0 6.21 0z"/><path class="cls-5" d="M324 29.09a2.55 2.55 0 0 1 3.6 0l10.62 10.62a2.55 2.55 0 1 1-3.6 3.6L324 32.7a2.57 2.57 0 0 1 0-3.61z"/><path class="cls-4" d="M373.44 151.73a1.33 1.33 0 0 0 0-1.88l-23.7-23.71a1.36 1.36 0 0 0-1.89 0 1.34 1.34 0 0 0 0 1.89l23.7 23.7a1.34 1.34 0 0 0 1.89 0z"/><path class="cls-3" d="M317.35 108.62a1.34 1.34 0 0 0 0-1.89L293.65 83a1.34 1.34 0 0 0-1.89 0 1.34 1.34 0 0 0 0 1.89l23.7 23.7a1.34 1.34 0 0 0 1.89.03z"/><path class="cls-6" d="M221.39 93.6a2.47 2.47 0 0 1 3.49 0l10.29 10.29a2.47 2.47 0 1 1-3.49 3.49l-10.29-10.29a2.47 2.47 0 0 1 0-3.49z"/><path class="cls-3" d="M310.85 66.23a2.47 2.47 0 0 1 3.49 0l10.29 10.29a2.47 2.47 0 0 1-3.49 3.48l-10.29-10.28a2.47 2.47 0 0 1 0-3.49z"/><path class="cls-4" d="M201.47 61.76a2.92 2.92 0 0 1 4.13 0l2.93 2.93a2.92 2.92 0 0 1-4.13 4.13l-2.93-2.93a2.92 2.92 0 0 1 0-4.13z"/><path class="cls-6" d="M267.08 84.92a2.92 2.92 0 0 1 4.13 0l2.93 2.93A2.92 2.92 0 0 1 270 92l-2.93-2.93a2.94 2.94 0 0 1 .01-4.15z"/><path class="cls-3" d="M300.45 49.43a1.36 1.36 0 0 0 0-1.89L260.19 7.28a1.34 1.34 0 0 0-1.89 0 1.33 1.33 0 0 0 0 1.88l40.26 40.27a1.36 1.36 0 0 0 1.89 0z"/><path class="cls-6" d="M333.14 107.91a2.92 2.92 0 0 1 4.13 0l2.93 2.93a2.92 2.92 0 0 1-4.13 4.13l-2.93-2.97a2.94 2.94 0 0 1 0-4.09z"/><path class="cls-5" d="M304.47 117.58a2.92 2.92 0 0 1 4.13 0l2.93 2.93a2.92 2.92 0 0 1-4.13 4.13l-2.93-2.93a2.92 2.92 0 0 1 0-4.13z"/><path class="cls-4" d="M383.45 269a3 3 0 0 0 0-4.19L301.58 183a3 3 0 0 0-4.19 0 3 3 0 0 0 0 4.19L379.26 269a3 3 0 0 0 4.19 0z"/><path class="cls-8" d="M375.28 220.1a4.39 4.39 0 0 0 0-6.2L357 195.62a4.4 4.4 0 0 0-6.21 0 4.41 4.41 0 0 0 0 6.2l18.29 18.28a4.39 4.39 0 0 0 6.2 0z"/><path class="cls-5" d="M421.63 168.28a3.74 3.74 0 0 1 5.2 0l15.36 15a3.57 3.57 0 0 1 0 5.1 3.76 3.76 0 0 1-5.21 0l-15.35-15a3.55 3.55 0 0 1 0-5.1z"/><path class="cls-8" d="M485.35 309a1.34 1.34 0 0 0 0-1.89l-23.7-23.7a1.34 1.34 0 0 0-1.89 0 1.36 1.36 0 0 0 0 1.89l23.71 23.7a1.33 1.33 0 0 0 1.88 0zM429.26 265.85a1.34 1.34 0 0 0 0-1.89l-23.7-23.7a1.34 1.34 0 0 0-1.89 0 1.33 1.33 0 0 0 0 1.88l23.7 23.71a1.34 1.34 0 0 0 1.89 0z"/><path class="cls-6" d="M262.31 143.83a2.47 2.47 0 0 1 3.49 0l10.29 10.29a2.47 2.47 0 1 1-3.49 3.49l-10.29-10.29a2.47 2.47 0 0 1 0-3.49z"/><path class="cls-3" d="M391.58 138.42a2.47 2.47 0 0 1 3.49 0l10.29 10.28a2.47 2.47 0 0 1-3.49 3.49l-10.29-10.28a2.47 2.47 0 0 1 0-3.49z"/><path class="cls-4" d="M322.75 151.57a2.92 2.92 0 0 1 4.13 0l2.93 2.93a2.92 2.92 0 0 1-4.13 4.13l-2.93-2.93a2.94 2.94 0 0 1 0-4.13z"/><path class="cls-6" d="M379 242.15a2.92 2.92 0 0 1 4.13 0l2.92 2.93a2.92 2.92 0 1 1-4.12 4.13l-2.93-2.93a2.92 2.92 0 0 1 0-4.13z"/><path class="cls-3" d="M500.83 190.72a1.33 1.33 0 0 0 0-1.88l-40.26-40.26a1.34 1.34 0 0 0-1.89 0 1.33 1.33 0 0 0 0 1.88l40.26 40.26a1.34 1.34 0 0 0 1.89 0z"/><path class="cls-6" d="M446.1 262.39a2.94 2.94 0 0 1 4.13 0l2.93 2.93a2.92 2.92 0 1 1-4.13 4.13l-2.93-2.93a2.92 2.92 0 0 1 0-4.13zM424 289.41a2.92 2.92 0 0 1 4.13 0l2.92 2.93a2.92 2.92 0 0 1-4.12 4.13l-2.93-2.93a2.92 2.92 0 0 1 0-4.13z"/><path class="cls-4" d="M646.57 239a3 3 0 0 0 0-4.2l-81.87-81.89a3 3 0 0 0-4.2 0 3 3 0 0 0 0 4.2L642.37 239a3 3 0 0 0 4.2 0zM734.13 323.46a3 3 0 0 0 0-4.2l-18.47-18.46a3 3 0 0 0-4.19 0 3 3 0 0 0 0 4.19l18.47 18.47a3 3 0 0 0 4.19 0z"/><path class="cls-8" d="M649.65 201.29a4.41 4.41 0 0 0 0-6.2l-18.28-18.28a4.4 4.4 0 0 0-6.21 0 4.41 4.41 0 0 0 0 6.2l18.29 18.28a4.39 4.39 0 0 0 6.2 0z"/><path class="cls-5" d="M710.25 167.51a2.55 2.55 0 0 1 3.6 0l10.61 10.62a2.55 2.55 0 1 1-3.6 3.6l-10.61-10.62a2.55 2.55 0 0 1 0-3.6z"/><path class="cls-8" d="M759.72 290.15a1.34 1.34 0 0 0 0-1.89L736 264.56a1.34 1.34 0 0 0-1.89 0 1.36 1.36 0 0 0 0 1.89l23.71 23.7a1.33 1.33 0 0 0 1.9 0z"/><path class="cls-3" d="M701.79 236.32a1.36 1.36 0 0 0 0-1.89l-23.71-23.7a1.33 1.33 0 0 0-1.88 0 1.34 1.34 0 0 0 0 1.89l23.7 23.7a1.34 1.34 0 0 0 1.89 0z"/><path class="cls-6" d="M536.68 125a2.47 2.47 0 0 1 3.49 0l10.29 10.29a2.47 2.47 0 0 1-3.46 3.51l-10.29-10.29a2.47 2.47 0 0 1-.03-3.51z"/><path class="cls-3" d="M718.32 204.65a2.47 2.47 0 0 1 3.49 0l10.28 10.29a2.47 2.47 0 0 1-3.49 3.49l-10.28-10.29a2.47 2.47 0 0 1 0-3.49z"/><path class="cls-4" d="M597.12 132.76a2.92 2.92 0 0 1 4.13 0l2.93 2.93a2.92 2.92 0 1 1-4.13 4.13l-2.93-2.93a2.94 2.94 0 0 1 0-4.13z"/><path class="cls-6" d="M647.4 183.85a2.94 2.94 0 0 1 4.13 0l2.93 2.93a2.92 2.92 0 0 1-4.13 4.13L647.4 188a2.92 2.92 0 0 1 0-4.15z"/><path class="cls-3" d="M686.73 187.84a1.33 1.33 0 0 0 0-1.88l-40.26-40.26a1.34 1.34 0 0 0-1.89 0 1.33 1.33 0 0 0 0 1.88l40.26 40.26a1.34 1.34 0 0 0 1.89 0z"/><path class="cls-6" d="M719.42 246.33a2.92 2.92 0 0 1 4.13 0l2.93 2.92a2.92 2.92 0 0 1-4.13 4.13l-2.93-2.93a2.93 2.93 0 0 1 0-4.12z"/><path class="cls-5" d="M764.14 320.79a2.92 2.92 0 0 1 4.13 0l2.93 2.93a2.92 2.92 0 0 1-4.13 4.13l-2.93-2.93a2.92 2.92 0 0 1 0-4.13z"/><path class="cls-8" d="M122.65 89.29a4.41 4.41 0 0 0 0-6.2l-18.28-18.28a4.4 4.4 0 0 0-6.21 0 4.41 4.41 0 0 0 0 6.2l18.29 18.28a4.39 4.39 0 0 0 6.2 0z"/><path class="cls-5" d="M183.25 55.51a2.55 2.55 0 0 1 3.6 0l10.61 10.62a2.55 2.55 0 1 1-3.6 3.6l-10.61-10.62a2.55 2.55 0 0 1 0-3.6z"/><path class="cls-8" d="M232.72 178.15a1.34 1.34 0 0 0 0-1.89L209 152.56a1.34 1.34 0 0 0-1.89 0 1.36 1.36 0 0 0 0 1.89l23.71 23.7a1.33 1.33 0 0 0 1.9 0z"/><path class="cls-3" d="M174.79 124.32a1.36 1.36 0 0 0 0-1.89l-23.71-23.7a1.33 1.33 0 0 0-1.88 0 1.34 1.34 0 0 0 0 1.89l23.7 23.7a1.34 1.34 0 0 0 1.89 0z"/><path class="cls-6" d="M9.68 13a2.47 2.47 0 0 1 3.49 0l10.29 10.31A2.47 2.47 0 0 1 20 26.8L9.68 16.51a2.47 2.47 0 0 1 0-3.51z"/><path class="cls-3" d="M191.32 92.65a2.47 2.47 0 0 1 3.49 0l10.28 10.29a2.47 2.47 0 0 1-3.49 3.49l-10.28-10.29a2.47 2.47 0 0 1 0-3.49z"/><path class="cls-4" d="M70.12 20.76a2.92 2.92 0 0 1 4.13 0l2.93 2.93a2.92 2.92 0 1 1-4.13 4.13l-2.93-2.93a2.94 2.94 0 0 1 0-4.13z"/><path class="cls-6" d="M120.4 71.85a2.94 2.94 0 0 1 4.13 0l2.93 2.93a2.92 2.92 0 0 1-4.13 4.13L120.4 76a2.92 2.92 0 0 1 0-4.15z"/><path class="cls-3" d="M159.73 75.84a1.33 1.33 0 0 0 0-1.88L119.47 33.7a1.34 1.34 0 0 0-1.89 0 1.33 1.33 0 0 0 0 1.88l40.26 40.26a1.34 1.34 0 0 0 1.89 0z"/><path class="cls-6" d="M192.42 134.33a2.92 2.92 0 0 1 4.13 0l2.93 2.92a2.92 2.92 0 0 1-4.13 4.13l-2.93-2.93a2.93 2.93 0 0 1 0-4.12z"/><path class="cls-5" d="M237.14 208.79a2.92 2.92 0 0 1 4.13 0l2.93 2.93a2.92 2.92 0 0 1-4.13 4.13l-2.93-2.93a2.92 2.92 0 0 1 0-4.13z"/><path class="cls-8" d="M580.65 89.29a4.41 4.41 0 0 0 0-6.2l-18.28-18.28a4.4 4.4 0 0 0-6.21 0 4.41 4.41 0 0 0 0 6.2l18.29 18.28a4.39 4.39 0 0 0 6.2 0z"/><path class="cls-5" d="M641.25 55.51a2.55 2.55 0 0 1 3.6 0l10.61 10.62a2.55 2.55 0 1 1-3.6 3.6l-10.61-10.62a2.55 2.55 0 0 1 0-3.6z"/><path class="cls-8" d="M690.72 178.15a1.34 1.34 0 0 0 0-1.89L667 152.56a1.34 1.34 0 0 0-1.89 0 1.36 1.36 0 0 0 0 1.89l23.71 23.7a1.33 1.33 0 0 0 1.9 0z"/><path class="cls-3" d="M632.79 124.32a1.36 1.36 0 0 0 0-1.89l-23.71-23.7a1.33 1.33 0 0 0-1.88 0 1.34 1.34 0 0 0 0 1.89l23.7 23.7a1.34 1.34 0 0 0 1.89 0z"/><path class="cls-6" d="M467.68 13a2.47 2.47 0 0 1 3.49 0l10.29 10.29A2.47 2.47 0 1 1 478 26.8l-10.32-10.29a2.47 2.47 0 0 1 0-3.51z"/><path class="cls-3" d="M649.32 92.65a2.47 2.47 0 0 1 3.49 0l10.28 10.29a2.47 2.47 0 0 1-3.49 3.49l-10.28-10.29a2.47 2.47 0 0 1 0-3.49z"/><path class="cls-4" d="M528.12 20.76a2.92 2.92 0 0 1 4.13 0l2.93 2.93a2.92 2.92 0 1 1-4.13 4.13l-2.93-2.93a2.94 2.94 0 0 1 0-4.13z"/><path class="cls-6" d="M578.4 71.85a2.94 2.94 0 0 1 4.13 0l2.93 2.93a2.92 2.92 0 0 1-4.13 4.13L578.4 76a2.92 2.92 0 0 1 0-4.15z"/><path class="cls-3" d="M617.73 75.84a1.33 1.33 0 0 0 0-1.88L577.47 33.7a1.34 1.34 0 0 0-1.89 0 1.33 1.33 0 0 0 0 1.88l40.26 40.26a1.34 1.34 0 0 0 1.89 0z"/><path class="cls-6" d="M650.42 134.33a2.92 2.92 0 0 1 4.13 0l2.93 2.92a2.92 2.92 0 0 1-4.13 4.13l-2.93-2.93a2.93 2.93 0 0 1 0-4.12z"/><path class="cls-5" d="M695.14 208.79a2.92 2.92 0 0 1 4.13 0l2.93 2.93a2.92 2.92 0 0 1-4.13 4.13l-2.93-2.93a2.92 2.92 0 0 1 0-4.13z"/><path class="cls-4" d="M610.41 321.43a3.27 3.27 0 0 0 0 4.63l13.65 13.65a3.29 3.29 0 0 0 4.63 0 3.29 3.29 0 0 0 0-4.63L615 321.43a3.27 3.27 0 0 0-4.59 0z"/><path class="cls-5" d="M501.5 290.89a2.55 2.55 0 0 1-3.6 0l-10.61-10.61a2.55 2.55 0 0 1 3.6-3.61l10.61 10.62a2.55 2.55 0 0 1 0 3.6z"/><path class="cls-8" d="M452 168.25a1.34 1.34 0 0 0 0 1.89l23.7 23.7a1.33 1.33 0 0 0 1.88 0 1.34 1.34 0 0 0 0-1.89l-23.7-23.7a1.33 1.33 0 0 0-1.88 0z"/><path class="cls-3" d="M510.6 203a1.64 1.64 0 0 0 .36 2.24l32.62 32.62a1.65 1.65 0 0 0 2.24.36 1.65 1.65 0 0 0-.35-2.24l-32.62-32.63a1.66 1.66 0 0 0-2.25-.35z"/><path class="cls-6" d="M624.4 253.12a2.47 2.47 0 0 1-3.49 0l-10.28-10.28a2.47 2.47 0 0 1 3.49-3.49l10.28 10.28a2.47 2.47 0 0 1 0 3.49z"/><path class="cls-3" d="M493.43 253.76a2.47 2.47 0 0 1-3.49 0l-10.29-10.29a2.47 2.47 0 0 1 3.49-3.49l10.29 10.29a2.47 2.47 0 0 1 0 3.49z"/><path class="cls-4" d="M540.63 322.41a2.92 2.92 0 0 1-4.13 0l-2.93-2.92a2.92 2.92 0 1 1 4.13-4.13l2.93 2.93a2.91 2.91 0 0 1 0 4.12z"/><path class="cls-6" d="M583.56 218.91a2.94 2.94 0 0 1-4.13 0L576.5 216a2.92 2.92 0 0 1 4.13-4.13l2.93 2.93a2.94 2.94 0 0 1 0 4.11z"/><path class="cls-3" d="M525 270.56c-.52.52-.32 1.56.44 2.32l58.84 58.84c.75.76 1.8 1 2.32.44.52-.52.32-1.56-.44-2.32L527.34 271c-.76-.76-1.8-1-2.34-.44z"/><path class="cls-6" d="M492.32 212.08a2.94 2.94 0 0 1-4.13 0l-2.92-2.93a2.92 2.92 0 0 1 4.12-4.13l2.93 2.93a2.92 2.92 0 0 1 0 4.13z"/><path class="cls-5" d="M528.16 181.87a2.94 2.94 0 0 1-4.13 0l-2.93-2.93a2.92 2.92 0 1 1 4.13-4.13l2.93 2.93a2.92 2.92 0 0 1 0 4.13z"/><path class="cls-9" d="M390.23 182.68c-.3.28-.47.46-.47.46z"/><path class="cls-8" d="M390.27 182.64l.2-.17zM390.71 182.26l.28-.21zM391.09 182a9.85 9.85 0 0 1 3.55-1.63 9.38 9.38 0 0 0-3.55 1.63zM389.41 194.67l3.18-2.83a3.12 3.12 0 0 1 2.23-.82 3.78 3.78 0 0 1 2.59 1.18 3.38 3.38 0 0 1-.24 4.82l-3.06 2.7 6.24 6.24 3.29-2.94a3.1 3.1 0 0 1 2.23-.83 3.76 3.76 0 0 1 2.59 1.18 3.38 3.38 0 0 1-.23 4.82l-3.06 2.7 5.41 5.41 3.29-2.94a3.13 3.13 0 0 1 2.23-.82 3.74 3.74 0 0 1 2.59 1.18 3.37 3.37 0 0 1-.23 4.82l-3.06 2.7 5.64 5.65 3.3-2.94a3.08 3.08 0 0 1 2.23-.83 3.78 3.78 0 0 1 2.59 1.18 3.38 3.38 0 0 1-.24 4.82l-3.06 2.71 3.53 3.52a9.08 9.08 0 0 0 12.94 0 9.24 9.24 0 0 0 0-12.93l-39.28-39.28c-2.79-2.52-5.36-3.15-7.47-2.95l43.55 43.5a2.87 2.87 0 0 1 .79 2 2.83 2.83 0 0 1-.79 2 3 3 0 0 1-4 0l-44.9-45-.47.47a9.21 9.21 0 0 0-.35 11.51z"/><path class="cls-8" d="M394.7 180.32a8.48 8.48 0 0 1 .88-.13c-.31.03-.58.08-.88.13z"/><path class="cls-5" d="M368.83 167.27a8.24 8.24 0 0 0 2.35 3.76l11.18 11.17a16 16 0 0 0 2.94 18.58l39.27 39.28a15.88 15.88 0 0 0 11.29 4.7 15.67 15.67 0 0 0 11.29-4.7 16 16 0 0 0 0-22.58l-39.28-39.28a15.84 15.84 0 0 0-11.29-4.7 15.19 15.19 0 0 0-6.11 1.18L379 163.15a8.11 8.11 0 0 0-5.53-2.58 5 5 0 0 0-3.53 1.41 5.32 5.32 0 0 0-1.11 5.29zm21.4 15.41l.2-.17.24-.21.28-.21.1-.08a9.38 9.38 0 0 1 3.55-1.63h.06c.28 0 .57-.1.88-.13 2.11-.2 4.68.43 7.47 2.95l39.28 39.28a9.24 9.24 0 0 1 0 12.93 9.08 9.08 0 0 1-12.94 0l-3.53-3.52 3.06-2.71a3.38 3.38 0 0 0 .24-4.82 3.78 3.78 0 0 0-2.59-1.18 3.08 3.08 0 0 0-2.23.83l-3.3 2.94-5.64-5.65 3.06-2.7a3.37 3.37 0 0 0 .23-4.82 3.74 3.74 0 0 0-2.59-1.18 3.13 3.13 0 0 0-2.23.82l-3.29 2.94-5.41-5.41 3.06-2.7a3.38 3.38 0 0 0 .23-4.82 3.76 3.76 0 0 0-2.59-1.18 3.1 3.1 0 0 0-2.23.83l-3.25 2.92-6.24-6.24 3.06-2.7a3.38 3.38 0 0 0 .24-4.82 3.78 3.78 0 0 0-2.59-1.18 3.12 3.12 0 0 0-2.23.82l-3.18 2.83a9.21 9.21 0 0 1 .35-11.52s.17-.19.47-.51z"/><path class="cls-7" d="M439.13 227.68a2.83 2.83 0 0 0 .79-2 2.87 2.87 0 0 0-.79-2s-43.52-43.5-43.55-43.5a8.48 8.48 0 0 0-.88.13h-.06a9.85 9.85 0 0 0-3.55 1.63l-.1.08-.28.21-.24.21-.2.17 44.9 45a3 3 0 0 0 3.96.07z"/><path class="cls-8" d="M358 353.47a2.19 2.19 0 0 0 0 3l7.77 7.85a1.71 1.71 0 0 0 1.48.59 2.08 2.08 0 0 0 1.56-.59 2.21 2.21 0 0 0 0-3l-7.81-7.85a2.19 2.19 0 0 0-3 0z"/><path class="cls-7" d="M349 339.11a8.16 8.16 0 0 0-11.55 11.54l8.15 8.14 11.54-11.54z"/><path class="cls-5" d="M371.35 355.43c-.15-.16-.29-.33-.45-.48l-4.36-4.37-14.54-14.5a12.28 12.28 0 0 0-8.8-3.63 12.61 12.61 0 0 0-8.81 3.63 12.42 12.42 0 0 0 0 17.61l18.87 18.87a12.32 12.32 0 0 0 8.81 3.63 12.61 12.61 0 0 0 8.8-3.63 12.32 12.32 0 0 0 3.63-8.81 11.94 11.94 0 0 0-3.15-8.32zm-2.59 8.92a2.08 2.08 0 0 1-1.56.59 1.71 1.71 0 0 1-1.48-.59L358 356.5a2.15 2.15 0 0 1 3-3l7.77 7.84a2.21 2.21 0 0 1-.01 3.01zm-23.16-5.56l-8.15-8.14A8.16 8.16 0 0 1 349 339.11l8.14 8.14z"/><path class="cls-8" d="M765.42 242.6a2.19 2.19 0 0 0 0 3l7.77 7.85a1.7 1.7 0 0 0 1.48.59 2.06 2.06 0 0 0 1.55-.59 2.19 2.19 0 0 0 0-3l-7.77-7.84a2.17 2.17 0 0 0-3.03-.01z"/><path class="cls-7" d="M756.47 228.24a8.17 8.17 0 1 0-11.55 11.55l8.14 8.14 11.55-11.55z"/><path class="cls-5" d="M778.81 244.56c-.14-.16-.28-.33-.44-.48l-4.37-4.37-14.5-14.5a12.32 12.32 0 0 0-8.81-3.63 12.59 12.59 0 0 0-8.8 3.63 12.4 12.4 0 0 0 0 17.61l18.87 18.87a12.29 12.29 0 0 0 8.8 3.63 12.65 12.65 0 0 0 8.81-3.63 12.32 12.32 0 0 0 3.63-8.81 11.92 11.92 0 0 0-3.19-8.32zm-2.59 8.92a2.06 2.06 0 0 1-1.55.59 1.7 1.7 0 0 1-1.48-.59l-7.77-7.85a2.14 2.14 0 1 1 3-3l7.77 7.84a2.19 2.19 0 0 1 .03 3.01zm-23.16-5.55l-8.14-8.14a8.17 8.17 0 0 1 11.55-11.55l8.14 8.14z"/><path class="cls-9" d="M238.89 202.55l10.58 10.63 11.79-11.8-10.58-10.63-11.79 11.8z"/><path class="cls-8" d="M225.71 178.23l-4.1 6.96 17.28 17.36 10.58 10.63 11.79-11.8-10.58-10.63-17.28-17.35-7.69 4.83z"/><path class="cls-5" d="M210.2 166.8l10.07 10.08-4.69 8.24a3.17 3.17 0 0 0 .57 4l31 31a3.39 3.39 0 0 0 4.7 0l5.84-5.84 10.41 10.3-5.83 5.84a3.32 3.32 0 1 0 4.69 4.7l16.49-16.49a3.38 3.38 0 0 0 0-4.69 3.29 3.29 0 0 0-2.41-1 3.48 3.48 0 0 0-2.4 1l-5.84 5.84-10.42-10.31 5.84-5.84a3.58 3.58 0 0 0 1-2.4 3.29 3.29 0 0 0-1-2.41l-31-31a3.33 3.33 0 0 0-2.41-1 2.65 2.65 0 0 0-1.6.46L225 172l-10.08-10.08a3.32 3.32 0 0 0-4.81 0 3.55 3.55 0 0 0 .09 4.88zm51.06 34.58l-11.79 11.79-10.58-10.62-17.28-17.36 4.1-7 7.69-4.83 17.28 17.36z"/><path class="cls-7" d="M238.89 202.55l11.79-11.79-17.28-17.36-7.69 4.83-4.1 7zm-12-18.56a2.3 2.3 0 0 1 1.71-.65 2.52 2.52 0 0 1 1.7.73l5.69 5.69a2.36 2.36 0 0 1-3.41 3.26l-5.69-5.69a2.4 2.4 0 0 1 .04-3.33zM571.15 274.1L556 258.89l-9.57 9.57a.61.61 0 0 0 0 .82l6 6A8.7 8.7 0 0 1 564 286.92l12.9 12.9a8.7 8.7 0 0 1 11.67 11.67l3.8 3.8a2.48 2.48 0 0 0 3.53 0l.07.07 4.61-4.62-33.05-33.05z"/><path class="cls-9" d="M571.15 274.1L556 258.89l-9.57 9.57a.61.61 0 0 0 0 .82l6 6A8.7 8.7 0 0 1 564 286.92l12.9 12.9a8.7 8.7 0 0 1 11.67 11.67l3.8 3.8a2.48 2.48 0 0 0 3.53 0l.07.07 4.61-4.62-33.05-33.05zM584.52 260.59L573.93 250l-14.18 4.96 15.2 15.2 9.57-9.57z"/><path class="cls-8" d="M621.91 285.77l-27.28-27.28-3.8 3.8-15.28 15.28-.19.19 29 29.05.19-.19 17.32-17.32a2.48 2.48 0 0 0 .04-3.53zM558.46 280.82a3.16 3.16 0 1 0-4.48 4.47 3.25 3.25 0 0 0 4.48 0 3.19 3.19 0 0 0 0-4.47zM583 305.38a3.17 3.17 0 0 0-4.48 4.48 3.26 3.26 0 0 0 4.48 0 3.2 3.2 0 0 0 0-4.48z"/><path class="cls-5" d="M625.85 281.7l-31.15-31.15-6.11 6.11-3.66-3.66 2.51-2.51a2.79 2.79 0 0 0-3.94-3.94l-2.5 2.5-3-3.05a5.67 5.67 0 0 0-6.66-.95L557.1 250a4.83 4.83 0 0 0-1.9 1.77l-.07-.07-12.76 12.76a6.18 6.18 0 0 0 0 8.69l6 6A8.7 8.7 0 0 0 560 290.79l12.89 12.9a8.75 8.75 0 0 0-.9 3.67 8.67 8.67 0 0 0 8.91 8.91 8.8 8.8 0 0 0 3.67-.91l3.8 3.8a8.16 8.16 0 0 0 11.53 0l26-26a8.13 8.13 0 0 0-.05-11.46zm-21.26 24.92l-.19.19-29-29.05.19-.19 15.28-15.28 3.8-3.8 27.28 27.28a2.48 2.48 0 0 1 0 3.53zM573.93 250l10.59 10.59-9.52 9.57L559.75 255zM554 285.29a3.16 3.16 0 1 1 4.48 0 3.25 3.25 0 0 1-4.48 0zm24.57 24.57a3.17 3.17 0 1 1 4.48 0 3.26 3.26 0 0 1-4.5 0zm17.44 5.5l-.07-.07a2.48 2.48 0 0 1-3.53 0l-3.8-3.8a8.7 8.7 0 0 0-11.67-11.67L564 286.92a8.7 8.7 0 0 0-11.67-11.67l-6-6a.61.61 0 0 1 0-.82l9.57-9.57 15.2 15.21-3.6 3.59 33.05 33.05z"/><path class="cls-7" d="M605.14 285.53l-2.28-2.28 2.68-2.67A2.51 2.51 0 1 0 602 277l-2.68 2.68-2.69-2.68a2.51 2.51 0 0 0-3.55 0l-.08.08a2.52 2.52 0 0 0 0 3.56l2.68 2.67-2.6 2.6a2.51 2.51 0 1 0 3.55 3.55l2.6-2.59 2.28 2.28a2.53 2.53 0 0 0 3.55 0l.08-.08a2.52 2.52 0 0 0 0-3.54z"/><path class="cls-4" d="M89.54 132.81a3 3 0 0 0 0-4.19L7.67 46.75a3 3 0 0 0-4.19 0 3 3 0 0 0 0 4.19l81.87 81.87a3 3 0 0 0 4.19 0zM153.71 193.9a3 3 0 0 0 0-4.19l-18.47-18.47a3 3 0 0 0-4.19 0 3 3 0 0 0 0 4.19l18.47 18.47a3 3 0 0 0 4.19 0z"/><path class="cls-8" d="M81.37 83.88a4.42 4.42 0 0 0 0-6.21L63.08 59.39a4.39 4.39 0 0 0-6.2 0 4.41 4.41 0 0 0 0 6.2l18.28 18.29a4.42 4.42 0 0 0 6.21 0z"/><path class="cls-5" d="M142 50.09a2.55 2.55 0 0 1 3.6 0l10.62 10.62a2.55 2.55 0 0 1-3.6 3.6L142 53.7a2.57 2.57 0 0 1 0-3.61z"/><path class="cls-4" d="M191.44 172.73a1.33 1.33 0 0 0 0-1.88l-23.7-23.71a1.36 1.36 0 0 0-1.89 0 1.34 1.34 0 0 0 0 1.89l23.7 23.7a1.34 1.34 0 0 0 1.89 0z"/><path class="cls-3" d="M135.35 129.62a1.34 1.34 0 0 0 0-1.89L111.65 104a1.34 1.34 0 0 0-1.89 0 1.34 1.34 0 0 0 0 1.89l23.7 23.7a1.34 1.34 0 0 0 1.89.03z"/><path class="cls-6" d="M39.39 114.6a2.47 2.47 0 0 1 3.49 0l10.29 10.29a2.47 2.47 0 0 1-3.49 3.49l-10.29-10.29a2.47 2.47 0 0 1 0-3.49z"/><path class="cls-3" d="M128.85 87.23a2.47 2.47 0 0 1 3.49 0l10.29 10.29a2.47 2.47 0 0 1-3.49 3.49l-10.29-10.29a2.47 2.47 0 0 1 0-3.49z"/><path class="cls-4" d="M19.47 82.76a2.92 2.92 0 0 1 4.13 0l2.93 2.93a2.92 2.92 0 0 1-4.13 4.13l-2.93-2.93a2.92 2.92 0 0 1 0-4.13z"/><path class="cls-6" d="M85.08 105.92a2.92 2.92 0 0 1 4.13 0l2.93 2.93A2.92 2.92 0 0 1 88 113l-2.93-2.93a2.94 2.94 0 0 1 .01-4.15z"/><path class="cls-3" d="M118.45 70.43a1.36 1.36 0 0 0 0-1.89L78.19 28.28a1.34 1.34 0 0 0-1.89 0 1.33 1.33 0 0 0 0 1.88l40.26 40.27a1.36 1.36 0 0 0 1.89 0z"/><path class="cls-6" d="M151.14 128.91a2.92 2.92 0 0 1 4.13 0l2.93 2.93a2.92 2.92 0 0 1-4.13 4.13l-2.93-2.97a2.94 2.94 0 0 1 0-4.09z"/><path class="cls-5" d="M122.47 138.58a2.92 2.92 0 0 1 4.13 0l2.93 2.93a2.92 2.92 0 0 1-4.13 4.13l-2.93-2.93a2.92 2.92 0 0 1 0-4.13z"/><path class="cls-2" d="M402 100.27a2 2 0 0 0 0-2.8l-85.63-85.65a2 2 0 0 0-2.8 0 2 2 0 0 0 0 2.8l85.66 85.65a2 2 0 0 0 2.77 0zM458.06 156.31a2 2 0 0 0 0-2.8L437.57 133a2 2 0 0 0-2.8 0 2 2 0 0 0 0 2.8l20.49 20.49a2 2 0 0 0 2.8.02z"/><path class="cls-3" d="M307.44 158.24a4.18 4.18 0 0 0 0-5.88l-16.83-16.82a4.16 4.16 0 0 0-5.88 0 4.18 4.18 0 0 0 0 5.88l16.83 16.82a4.16 4.16 0 0 0 5.88 0z"/><path class="cls-4" d="M174 76.27a2 2 0 0 0 0-2.8l-54.62-54.66a2 2 0 0 0-2.8 0 2 2 0 0 0 0 2.8l54.65 54.66a2 2 0 0 0 2.77 0zM249.32 152.42a2 2 0 0 0 0-2.8l-27.7-27.7a2 2 0 0 0-2.8 0 2 2 0 0 0 0 2.8l27.7 27.7a2 2 0 0 0 2.8 0zM434.81 80.54a2 2 0 0 0 0-2.8l-54.65-54.65a2 2 0 0 0-2.8 0 2 2 0 0 0 0 2.8L432 80.54a2 2 0 0 0 2.81 0zM477.65 121.32a2 2 0 0 0 0-2.8l-12.33-12.33a2 2 0 0 0-2.8 0 2 2 0 0 0 0 2.8l12.33 12.33a2 2 0 0 0 2.8 0z"/><path class="cls-5" d="M183.45 38.3a4.73 4.73 0 0 0 0-6.68l-25-25a4.75 4.75 0 0 0-6.68 0 4.75 4.75 0 0 0 0 6.68l25 25a4.73 4.73 0 0 0 6.68 0z"/><path class="cls-8" d="M292.41 150.12a4.57 4.57 0 0 0 0-6.44L252 103.23a4.57 4.57 0 0 0-6.44 0 4.57 4.57 0 0 0 0 6.44L286 150.12a4.57 4.57 0 0 0 6.41 0z"/><path class="cls-5" d="M375.74 113.27a4.18 4.18 0 0 0 0-5.88l-54.22-54.22a4.18 4.18 0 0 0-5.88 0 4.16 4.16 0 0 0 0 5.88l54.22 54.22a4.16 4.16 0 0 0 5.88 0z"/><path class="cls-8" d="M324.4 87.38a2.93 2.93 0 0 0 0-4.14L312.2 71a2.93 2.93 0 0 0-4.14 0 2.93 2.93 0 0 0 0 4.14l12.2 12.2a2.93 2.93 0 0 0 4.14.04zM442.37 113.79a3 3 0 0 0 0-4.14l-12.21-12.21a2.93 2.93 0 0 0-4.14 0 2.93 2.93 0 0 0 0 4.14l12.21 12.21a2.93 2.93 0 0 0 4.14 0z"/><path class="cls-5" d="M390.83 68.36a1.7 1.7 0 0 1 2.4 0l7.09 7.09a1.7 1.7 0 1 1-2.41 2.4l-7.08-7.08a1.7 1.7 0 0 1 0-2.41z"/><path class="cls-6" d="M373.1 123.83a1.7 1.7 0 0 1 2.4 0l7.09 7.08a1.7 1.7 0 1 1-2.41 2.41l-7.08-7.09a1.7 1.7 0 0 1 0-2.4z"/><path class="cls-8" d="M384.33 109.12a.89.89 0 0 0 0-1.26l-63.61-63.61a.89.89 0 0 0-1.26 0 .89.89 0 0 0 0 1.26l63.61 63.61a.91.91 0 0 0 1.26 0zM378.71 52.05a.91.91 0 0 0 0-1.26L331.17 3.26a.89.89 0 0 0-1.26 0 .91.91 0 0 0 0 1.26l47.54 47.53a.89.89 0 0 0 1.26 0zM171.09 68.33a.89.89 0 0 0 0-1.26L107.48 3.46a.91.91 0 0 0-1.26 0 .91.91 0 0 0 0 1.26l63.61 63.61a.89.89 0 0 0 1.26 0zM423.85 150.23a.89.89 0 0 0 0-1.26L408 133.15a.89.89 0 0 0-1.26 0 .89.89 0 0 0 0 1.26l15.82 15.82a.89.89 0 0 0 1.29 0zM470.48 110.84a.89.89 0 0 0 0-1.26l-15.82-15.82a.91.91 0 0 0-1.26 0 .91.91 0 0 0 0 1.26l15.82 15.82a.89.89 0 0 0 1.26 0z"/><path class="cls-3" d="M360.44 117.92a.91.91 0 0 0 0-1.26l-15.83-15.82a.89.89 0 0 0-1.26 0 .91.91 0 0 0 0 1.26l15.83 15.82a.89.89 0 0 0 1.26 0zM375.76 30.65a.91.91 0 0 0 0-1.26l-15.82-15.83a.91.91 0 0 0-1.26 0 .89.89 0 0 0 0 1.26l15.82 15.83a.91.91 0 0 0 1.26 0z"/><path class="cls-8" d="M412.91 75.29a.89.89 0 0 0 0-1.26L397.09 58.2a.91.91 0 0 0-1.26 0 .89.89 0 0 0 0 1.26l15.82 15.83a.91.91 0 0 0 1.26 0z"/><path class="cls-6" d="M444.43 124a1.65 1.65 0 0 1 2.33 0l6.86 6.87a1.65 1.65 0 1 1-2.33 2.33l-6.86-6.87a1.65 1.65 0 0 1 0-2.33z"/><path class="cls-3" d="M396.21 93.15a1.65 1.65 0 0 1 2.33 0l6.87 6.87a1.65 1.65 0 1 1-2.33 2.33l-6.87-6.87a1.65 1.65 0 0 1 0-2.33z"/><path class="cls-6" d="M342.93 144.73a2.93 2.93 0 0 0 0-4.14l-12.21-12.21a2.93 2.93 0 0 0-4.14 0 2.93 2.93 0 0 0 0 4.14l12.21 12.21a2.93 2.93 0 0 0 4.14 0z"/><path class="cls-4" d="M335.32 18.39a2 2 0 0 1 2.76 0l2 2a2 2 0 0 1-2.76 2.76l-2-2a2 2 0 0 1 0-2.76z"/><path class="cls-6" d="M431.84 62.59a1.94 1.94 0 0 1 2.75 0l2 2a2 2 0 0 1-2.76 2.76l-2-2a1.94 1.94 0 0 1 .01-2.76z"/><path class="cls-3" d="M383.23 64.59a.89.89 0 0 0 0-1.26l-26.87-26.88a.91.91 0 0 0-1.26 0 .89.89 0 0 0 0 1.26L382 64.59a.91.91 0 0 0 1.23 0z"/><path class="cls-6" d="M397 121a2 2 0 0 1 2.76 0l2 2a1.95 1.95 0 0 1-2.75 2.76l-2-2A1.94 1.94 0 0 1 397 121z"/><path class="cls-5" d="M351.84 123.9a1.94 1.94 0 0 1 2.75 0l2 1.95a2 2 0 0 1-2.76 2.76l-2-2a2 2 0 0 1 .01-2.71z"/><path class="cls-4" d="M1680.32 1013.05a3 3 0 0 0 0-4.2L1598.45 927a3 3 0 0 0-4.19 0 3 3 0 0 0 0 4.2l81.87 81.87a3 3 0 0 0 4.19-.02zM1744.49 1074.14a3 3 0 0 0 0-4.2l-18.49-18.47a3 3 0 0 0-4.19 0 3 3 0 0 0 0 4.2l18.47 18.47a3 3 0 0 0 4.21 0z"/><path class="cls-8" d="M1672.15 964.11a4.41 4.41 0 0 0 0-6.2l-18.29-18.29a4.41 4.41 0 0 0-6.2 0 4.41 4.41 0 0 0 0 6.2l18.28 18.29a4.42 4.42 0 0 0 6.21 0z"/><path class="cls-5" d="M1732.74 930.33a2.55 2.55 0 0 1 3.6 0l10.66 10.61a2.55 2.55 0 0 1-3.6 3.6l-10.62-10.61a2.55 2.55 0 0 1-.04-3.6z"/><path class="cls-4" d="M1782.22 1053a1.34 1.34 0 0 0 0-1.89l-23.7-23.7a1.34 1.34 0 0 0-1.89 0 1.33 1.33 0 0 0 0 1.88l23.7 23.71a1.36 1.36 0 0 0 1.89 0z"/><path class="cls-3" d="M1726.13 1009.85a1.34 1.34 0 0 0 0-1.89l-23.7-23.7a1.34 1.34 0 0 0-1.89 0 1.34 1.34 0 0 0 0 1.89l23.7 23.7a1.34 1.34 0 0 0 1.89 0z"/><path class="cls-6" d="M1608.17 974.83a2.47 2.47 0 0 1 3.49 0l10.34 10.29a2.47 2.47 0 0 1-3.49 3.49l-10.29-10.29a2.49 2.49 0 0 1-.05-3.49z"/><path class="cls-3" d="M1719.63 967.46a2.47 2.47 0 0 1 3.49 0l10.29 10.29a2.47 2.47 0 0 1-3.49 3.49L1719.63 971a2.47 2.47 0 0 1 0-3.54z"/><path class="cls-4" d="M1656.25 926a2.94 2.94 0 0 1 4.13 0l2.93 2.93a2.92 2.92 0 0 1-4.13 4.13l-2.93-2.93a2.92 2.92 0 0 1 0-4.13z"/><path class="cls-6" d="M1675.86 986.15a2.94 2.94 0 0 1 4.13 0l2.93 2.93a2.92 2.92 0 0 1-4.13 4.13l-2.93-2.93a2.94 2.94 0 0 1 0-4.13z"/><path class="cls-3" d="M1709.23 950.66a1.36 1.36 0 0 0 0-1.89L1669 908.51a1.34 1.34 0 0 0-1.89 0 1.34 1.34 0 0 0 0 1.89l40.26 40.26a1.34 1.34 0 0 0 1.86 0z"/><path class="cls-6" d="M1741.92 1009.14a2.92 2.92 0 0 1 4.13 0l2.93 2.93a2.92 2.92 0 0 1-4.13 4.13l-2.93-2.93a2.94 2.94 0 0 1 0-4.13z"/><path class="cls-5" d="M1713.25 1018.81a2.92 2.92 0 0 1 4.13 0l2.93 2.93a2.92 2.92 0 0 1-4.13 4.13l-2.93-2.93a2.92 2.92 0 0 1 0-4.13z"/><path class="cls-4" d="M1800.23 1034.69a3 3 0 0 0 0-4.19l-81.87-81.87a3 3 0 0 0-4.19 0 3 3 0 0 0 0 4.19l81.87 81.87a3 3 0 0 0 4.19 0z"/><path class="cls-8" d="M1792.06 985.75a4.39 4.39 0 0 0 0-6.2l-18.28-18.28a4.39 4.39 0 0 0-6.2 0 4.39 4.39 0 0 0 0 6.2l18.28 18.28a4.39 4.39 0 0 0 6.2 0z"/><path class="cls-5" d="M1838.41 933.93a3.74 3.74 0 0 1 5.2 0L1859 949a3.57 3.57 0 0 1 0 5.1 3.76 3.76 0 0 1-5.21 0l-15.35-15a3.55 3.55 0 0 1-.03-5.17z"/><path class="cls-8" d="M1902.13 1074.61a1.34 1.34 0 0 0 0-1.89l-23.7-23.7a1.34 1.34 0 0 0-1.89 0 1.36 1.36 0 0 0 0 1.89l23.71 23.7a1.33 1.33 0 0 0 1.88 0zM1846 1031.5a1.34 1.34 0 0 0 0-1.89l-23.7-23.7a1.34 1.34 0 0 0-1.89 0 1.33 1.33 0 0 0 0 1.88l23.7 23.71a1.34 1.34 0 0 0 1.89 0z"/><path class="cls-6" d="M1679.09 909.48a2.47 2.47 0 0 1 3.49 0l10.29 10.29a2.47 2.47 0 1 1-3.49 3.49L1679.09 913a2.47 2.47 0 0 1 0-3.52z"/><path class="cls-3" d="M1808.36 904.07a2.47 2.47 0 0 1 3.49 0l10.29 10.29a2.47 2.47 0 0 1-3.49 3.49l-10.29-10.29a2.47 2.47 0 0 1 0-3.49z"/><path class="cls-4" d="M1739.53 917.22a2.92 2.92 0 0 1 4.13 0l2.93 2.93a2.92 2.92 0 1 1-4.13 4.13l-2.93-2.93a2.94 2.94 0 0 1 0-4.13z"/><path class="cls-6" d="M1795.78 1007.8a2.92 2.92 0 0 1 4.13 0l2.93 2.93a2.92 2.92 0 1 1-4.13 4.13l-2.93-2.93a2.92 2.92 0 0 1 0-4.13z"/><path class="cls-3" d="M1917.61 956.38a1.34 1.34 0 0 0 0-1.89l-40.26-40.26a1.34 1.34 0 0 0-1.89 0 1.33 1.33 0 0 0 0 1.88l40.26 40.27a1.36 1.36 0 0 0 1.89 0z"/><path class="cls-6" d="M1862.88 1028a2.94 2.94 0 0 1 4.13 0l2.93 2.93a2.92 2.92 0 0 1-4.13 4.13l-2.93-2.93a2.94 2.94 0 0 1 0-4.13zM1840.78 1055.06a2.92 2.92 0 0 1 4.13 0l2.92 2.93a2.92 2.92 0 0 1-4.12 4.13l-2.93-2.93a2.92 2.92 0 0 1 0-4.13z"/><path class="cls-8" d="M1586.65 1043.29a4.41 4.41 0 0 0 0-6.2l-18.28-18.28a4.4 4.4 0 0 0-6.21 0 4.41 4.41 0 0 0 0 6.2l18.29 18.28a4.39 4.39 0 0 0 6.2 0z"/><path class="cls-5" d="M1647.25 1009.51a2.55 2.55 0 0 1 3.6 0l10.61 10.62a2.55 2.55 0 0 1-3.6 3.6l-10.61-10.62a2.55 2.55 0 0 1 0-3.6z"/><path class="cls-3" d="M1638.79 1078.32a1.36 1.36 0 0 0 0-1.89l-23.71-23.7a1.33 1.33 0 0 0-1.88 0 1.34 1.34 0 0 0 0 1.89l23.7 23.7a1.34 1.34 0 0 0 1.89 0z"/><path class="cls-6" d="M1473.68 967a2.47 2.47 0 0 1 3.49 0l10.29 10.29a2.47 2.47 0 1 1-3.49 3.49l-10.29-10.29a2.47 2.47 0 0 1 0-3.49z"/><path class="cls-3" d="M1655.32 1046.65a2.47 2.47 0 0 1 3.49 0l10.28 10.29a2.47 2.47 0 0 1-3.49 3.49l-10.28-10.29a2.47 2.47 0 0 1 0-3.49z"/><path class="cls-4" d="M1534.12 974.76a2.92 2.92 0 0 1 4.13 0l2.93 2.93a2.92 2.92 0 1 1-4.13 4.13l-2.93-2.93a2.94 2.94 0 0 1 0-4.13z"/><path class="cls-6" d="M1584.4 1025.85a2.94 2.94 0 0 1 4.13 0l2.93 2.93a2.92 2.92 0 0 1-4.13 4.13l-2.93-2.93a2.92 2.92 0 0 1 0-4.13z"/><path class="cls-3" d="M1623.73 1029.84a1.33 1.33 0 0 0 0-1.88l-40.26-40.26a1.34 1.34 0 0 0-1.89 0 1.33 1.33 0 0 0 0 1.88l40.26 40.26a1.34 1.34 0 0 0 1.89 0z"/></g></g></svg>