<svg xmlns="http://www.w3.org/2000/svg" viewBox="0 0 40 40"><defs><style>.cls-1{fill:#e34f3d;}.cls-2{fill:#fff;}</style></defs><title>Asset 7</title><g id="Layer_2" data-name="Layer 2"><g id="Layer_1-2" data-name="Layer 1"><circle class="cls-1" cx="20" cy="20" r="20"/><path class="cls-2" d="M24.53,8.83H15.47A6.67,6.67,0,0,0,8.8,15.5v9.05a6.68,6.68,0,0,0,6.67,6.68h9.06a6.68,6.68,0,0,0,6.67-6.68v-9A6.67,6.67,0,0,0,24.53,8.83ZM29,24.55A4.42,4.42,0,0,1,24.53,29H15.47a4.42,4.42,0,0,1-4.42-4.42v-9a4.42,4.42,0,0,1,4.42-4.42h9.06A4.42,4.42,0,0,1,29,15.5v9.05Z"/><path class="cls-2" d="M20,14.23A5.8,5.8,0,1,0,25.79,20,5.8,5.8,0,0,0,20,14.23Zm0,9.34A3.54,3.54,0,1,1,23.54,20,3.54,3.54,0,0,1,20,23.57Z"/><circle class="cls-2" cx="25.8" cy="14.28" r="1.39"/></g></g></svg>