<svg xmlns="http://www.w3.org/2000/svg" viewBox="0 0 47.99 43"><defs><style>.cls-1{fill:#fff;}.cls-2{fill:#ec5b47;}.cls-3{fill:#3cbcc5;}</style></defs><title>Asset 20</title><g id="Layer_2" data-name="Layer 2"><g id="Layer_1-2" data-name="Layer 1"><rect class="cls-1" x="4.52" y="12.08" width="39.69" height="27.22" rx="4.58" ry="4.58"/><path class="cls-2" d="M24.23,34.15a2.43,2.43,0,0,0,2.42-2.42V28.19h3.11a2.43,2.43,0,0,0,2.42-2.42v-.11a2.42,2.42,0,0,0-2.42-2.42H26.65V19.59a2.42,2.42,0,0,0-4.84,0v3.65H18.16a2.42,2.42,0,0,0-2.42,2.42v.11a2.43,2.43,0,0,0,2.42,2.42h3.65v3.54A2.43,2.43,0,0,0,24.23,34.15Z"/><path class="cls-3" d="M40.83,8.31H35v-2A6.29,6.29,0,0,0,28.69,0H19.22a6.29,6.29,0,0,0-6.28,6.29v2H7.08A7.09,7.09,0,0,0,0,15.39V35.92A7.09,7.09,0,0,0,7.08,43H40.91A7.09,7.09,0,0,0,48,35.92V15.39A7.2,7.2,0,0,0,40.83,8.31Zm-23.7-2a2.1,2.1,0,0,1,2.09-2.1h9.47a2.1,2.1,0,0,1,2.1,2.1v2H17.13Zm26.6,29.63a2.83,2.83,0,0,1-2.82,2.82H7.08a2.82,2.82,0,0,1-2.82-2.82V15.39a2.82,2.82,0,0,1,2.82-2.81H40.91a2.82,2.82,0,0,1,2.82,2.81Z"/></g></g></svg>