<svg xmlns="http://www.w3.org/2000/svg" viewBox="0 0 40 40"><defs><style>.cls-1{fill:#fff;}.cls-2{fill:#e34f3d;}</style></defs><title>Asset 8</title><g id="Layer_2" data-name="Layer 2"><g id="Layer_1-2" data-name="Layer 1"><circle class="cls-1" cx="20" cy="20" r="15"/><path class="cls-2" d="M20,0A20,20,0,1,0,40,20,20,20,0,0,0,20,0Zm5.89,29.5H14.76c-3.23,0-3.2-5,0-5H25.92C29.16,24.48,29.13,29.5,25.89,29.5ZM14.8,17.72H25.92c3,0,3,4.7,0,4.7H14.77C11.73,22.42,11.76,17.72,14.8,17.72Zm11.09-2H14.76c-3.23,0-3.2-5,0-5H25.92C29.16,10.73,29.13,15.75,25.89,15.75Z"/></g></g></svg>