<svg xmlns="http://www.w3.org/2000/svg" viewBox="0 0 33.06 130"><defs><style>.cls-1{fill:#e34f3d;}</style></defs><title>Asset 4</title><g id="Layer_2" data-name="Layer 2"><g id="Layer_1-2" data-name="Layer 1"><path class="cls-1" d="M17.39,0C12,10.62,5.31,22.57,0,30l8.63,1.46c.27,11.55,2.52,17.79,8.9,23,6.1,5,7,7.56,4.24,12-4.11,6.46-12.24,10.2-14.24,18A13,13,0,0,0,9.6,95.15c1.72,2.35,4.2,4,6,6.34,2.83,3.63,3.71,8.48,3.36,13.06s-1.81,9-3.27,13.37l13,2.08c1.78-7.62,3.57-15.61,1.59-23.19a24.41,24.41,0,0,0-4.56-9c-2.08-2.59-6.26-7.47-7-10.61-.46-1.82.24-3.72,1-5.42a41.84,41.84,0,0,1,7-10.36c2.24-2.45,5.57-4.69,6.19-8.17a12.9,12.9,0,0,0-3.06-10,38.74,38.74,0,0,0-5.44-4.78c-4-2.79-7.17-9.29-6.24-15.67l8.63,1.47C23.1,25.49,20.58,11.68,17.39,0Z"/></g></g></svg>