<svg xmlns="http://www.w3.org/2000/svg" viewBox="0 0 33.06 130"><defs><style>.cls-1{fill:#e34f3d;}</style></defs><title>Asset 3</title><g id="Layer_2" data-name="Layer 2"><g id="Layer_1-2" data-name="Layer 1"><path class="cls-1" d="M15.67,130c5.44-10.62,12.08-22.57,17.39-30l-8.63-1.46c-.26-11.55-2.52-17.79-8.89-23-6.11-5-7-7.56-4.25-12,4.11-6.46,12.25-10.2,14.25-18a13,13,0,0,0-2.08-10.72c-1.72-2.35-4.19-4.05-6-6.34-2.83-3.63-3.71-8.47-3.37-13.06s1.82-9,3.27-13.37L4.34,0C2.56,7.62.78,15.61,2.75,23.19a24.34,24.34,0,0,0,4.56,9.05c2.08,2.59,6.26,7.47,7.06,10.61.45,1.82-.24,3.72-1,5.42a41.8,41.8,0,0,1-7,10.36C4.08,61.08.76,63.32.14,66.8a12.86,12.86,0,0,0,3.05,10,39.31,39.31,0,0,0,5.44,4.78c4,2.79,7.17,9.29,6.24,15.67L6.24,95.75C10,104.51,12.48,118.32,15.67,130Z"/></g></g></svg>